<svg width="17" height="24" viewBox="0 0 17 24" fill="none" xmlns="http://www.w3.org/2000/svg">
<path d="M4.37314 5.30391C4.37314 3.30039 6.30504 1.67042 8.67954 1.67042C11.054 1.67042 12.9859 3.30039 12.9859 5.30391V8.9374H14.966V5.30391C14.966 2.37939 12.1458 0 8.67954 0C5.21325 0 2.39307 2.37939 2.39307 5.30391V8.9374H4.37314V5.30391Z" fill="#F0F9FF"/>
<path d="M15.043 9.27148H14.9662H12.9861H4.37334H2.39326H2.30721C1.31331 9.27148 0.5 10.0608 0.5 11.0256V20.8817C0.5 20.8817 7.81438 27.8978 16.8499 20.8817V11.0254C16.8502 10.0608 16.0369 9.27148 15.043 9.27148ZM10.8103 20.0045H6.57136L7.56269 15.5031C6.96732 15.1512 6.57136 14.5295 6.57136 13.8208C6.57136 12.7231 7.52018 11.8333 8.69081 11.8333C9.86144 11.8333 10.8103 12.7231 10.8103 13.8208C10.8103 14.5965 10.3362 15.2679 9.64504 15.5956L10.8103 20.0045Z" fill="#F0F9FF"/>
</svg>
