<svg width="17" height="24" viewBox="0 0 17 24" fill="none" xmlns="http://www.w3.org/2000/svg">
<path d="M4.52353 5.30391C4.52353 3.30039 6.45544 1.67042 8.82993 1.67042C11.2044 1.67042 13.1363 3.30039 13.1363 5.30391V8.9374H15.1164V5.30391C15.1164 2.37939 12.2962 0 8.82993 0C5.36364 0 2.54346 2.37939 2.54346 5.30391V8.9374H4.52353V5.30391Z" fill="#A1A5B6"/>
<path d="M15.1934 9.27148H15.1166H13.1365H4.52373H2.54365H2.4576C1.4637 9.27148 0.650391 10.0608 0.650391 11.0256V20.8817C0.650391 20.8817 7.96477 27.8978 17.0003 20.8817V11.0254C17.0006 10.0608 16.1873 9.27148 15.1934 9.27148ZM10.9607 20.0045H6.72175L7.71308 15.5031C7.11771 15.1512 6.72175 14.5295 6.72175 13.8208C6.72175 12.7231 7.67057 11.8333 8.8412 11.8333C10.0118 11.8333 10.9607 12.7231 10.9607 13.8208C10.9607 14.5965 10.4866 15.2679 9.79543 15.5956L10.9607 20.0045Z" fill="#A1A5B6"/>
</svg>
